<?xml version="1.0" standalone="no"?><!DOCTYPE svg PUBLIC "-//W3C//DTD SVG 1.1//EN" "http://www.w3.org/Graphics/SVG/1.1/DTD/svg11.dtd"><svg t="1543549673217" class="icon" style="" viewBox="0 0 1024 1024" version="1.1" xmlns="http://www.w3.org/2000/svg" p-id="2060" xmlns:xlink="http://www.w3.org/1999/xlink" width="48" height="48"><defs><style type="text/css"></style></defs><path d="M512 66.782609c245.49287 0 445.217391 199.724522 445.217391 445.217391s-199.746783 445.217391-445.217391 445.217391S66.782609 757.49287 66.782609 512 266.50713 66.782609 512 66.782609m0-66.782609C229.220174 0 0 229.242435 0 512c0 282.779826 229.220174 512 512 512s512-229.220174 512-512C1024 229.242435 794.757565 0 512 0z" p-id="2061" fill="#ffffff"></path><path d="M768 512c0 21.192348-17.185391 38.4-38.4 38.4h-435.2a38.4 38.4 0 0 1 0-76.8h435.222261c21.192348 0 38.377739 17.207652 38.377739 38.4z" p-id="2062" fill="#ffffff"></path><path d="M512 256c21.192348 0 38.4 17.185391 38.4 38.4v435.222261a38.4 38.4 0 0 1-76.8 0V294.4c0-21.214609 17.207652-38.4 38.4-38.4z" p-id="2063" fill="#ffffff"></path></svg>