<?xml version="1.0" standalone="no"?><!DOCTYPE svg PUBLIC "-//W3C//DTD SVG 1.1//EN" "http://www.w3.org/Graphics/SVG/1.1/DTD/svg11.dtd"><svg t="1543556511595" class="icon" style="" viewBox="0 0 1024 1024" version="1.1" xmlns="http://www.w3.org/2000/svg" p-id="2874" xmlns:xlink="http://www.w3.org/1999/xlink" width="48" height="48"><defs><style type="text/css"></style></defs><path d="M434.457573 703.331315H255.875012c-17.698272 0-31.996875-14.298604-31.996875-31.996875s14.298604-31.996875 31.996875-31.996875h178.582561l-41.295968-41.295967c-10.898936-12.69876-10.099014-31.596914 1.699834-43.495753 11.798848-11.798848 30.796992-12.59877 43.495753-1.699834l92.790938 92.790939c7.799238 5.799434 12.498779 14.898545 12.79875 24.597597 0.299971 9.699053-3.799629 18.998145-11.198906 25.29753L438.357192 789.922859c-7.599258 7.499268-18.398203 10.798945-28.897178 8.699151-10.498975-2.099795-19.198125-9.299092-23.297725-19.198126-4.999512-11.998828-2.199785-25.797481 6.999316-34.996582l41.295968-41.095987z m333.567425 95.990626H639.937506c-17.698272 0-31.996875-14.298604-31.996875-31.996875s14.298604-31.996875 31.996875-31.996875h95.990626V432.857729L511.950005 293.07138 287.871888 433.157699v78.092374c0 17.698272-14.298604 31.996875-31.996876 31.996876s-31.996875-14.298604-31.996875-31.996876v-95.990626c0-11.098916 5.699443-21.39791 14.998535-27.197344l256.074993-159.984376c10.398984-6.499365 23.597696-6.499365 33.89669 0l256.074992 159.984376c9.399082 5.899424 15.098526 16.098428 14.998536 27.197344v352.065619c0.09999 17.698272-14.198613 31.996875-31.896885 31.996875z m0 0" p-id="2875" fill="#ffffff"></path><path d="M512.149985 0.299971C229.47759 0.299971 0.299971 229.47759 0.299971 512.149985s229.177619 511.850015 511.850014 511.850015 511.850015-229.177619 511.850015-511.850015S794.922371 0.299971 512.149985 0.299971z m0 959.706278c-247.375842 0-447.856264-200.480422-447.856264-447.856264S264.774143 64.293721 512.149985 64.293721s447.856264 200.480422 447.856264 447.856264-200.480422 447.856264-447.856264 447.856264z" p-id="2876" fill="#ffffff"></path></svg>