<?xml version="1.0" standalone="no"?><!DOCTYPE svg PUBLIC "-//W3C//DTD SVG 1.1//EN" "http://www.w3.org/Graphics/SVG/1.1/DTD/svg11.dtd"><svg t="1543548892791" class="icon" style="" viewBox="0 0 1024 1024" version="1.1" xmlns="http://www.w3.org/2000/svg" p-id="1198" xmlns:xlink="http://www.w3.org/1999/xlink" width="48" height="48"><defs><style type="text/css"></style></defs><path d="M290.816 403.456c32.768-25.6 59.904-7.68 95.744 33.792 4.096 4.608 9.728-1.024 12.8-3.584 3.072-2.56 50.688-45.568 53.248-47.616 2.56-2.048 5.12-6.144 1.536-10.24-3.584-4.096-17.408-22.016-26.112-33.28-62.976-82.432 173.056-138.752 136.704-139.776-18.432-0.512-92.672-1.536-103.424 0-45.056 4.608-101.376 46.592-129.536 66.048-36.864 25.6-50.688 40.448-53.248 42.496-10.24 9.216-1.536 30.208-20.48 47.104-19.968 17.408-32.768 4.096-44.544 14.336-5.632 5.12-22.016 17.408-26.624 20.992-4.608 4.096-5.632 10.752-0.512 16.384 0 0 44.032 48.64 48.128 53.248 3.584 4.096 13.824 8.192 19.968 2.56 6.144-5.632 22.016-19.456 24.576-22.016C281.088 441.856 276.48 414.208 290.816 403.456L290.816 403.456zM490.496 421.376c-4.096-4.608-9.216-5.12-13.824-1.024l-50.176 43.52c-4.096 3.584-4.608 9.728-1.024 13.824l289.792 330.24c6.656 7.68 18.432 8.704 26.112 2.048l33.792-28.672c7.68-6.656 8.704-18.432 2.048-26.624L490.496 421.376 490.496 421.376zM877.056 281.088c-2.56-17.408-11.776-13.824-16.384-6.144-4.608 7.168-25.088 38.4-33.792 52.736-8.192 13.824-29.184 41.472-67.584 14.336-39.936-28.16-26.112-48.128-18.944-61.44 7.168-13.312 28.672-50.688 31.744-55.808 3.072-4.608-0.512-18.432-12.8-12.8-12.288 5.632-88.064 35.84-98.816 78.848-10.752 44.032 9.216 82.944-29.696 122.368l-47.104 49.152 47.104 54.784 57.856-54.784c13.824-13.824 43.008-27.136 69.632-20.992 57.344 12.8 88.064-8.704 107.008-44.032C882.688 365.056 879.616 297.984 877.056 281.088L877.056 281.088zM276.992 758.784c-7.168 7.168-7.168 18.944 0 26.624l33.28 32.768c7.168 7.168 18.944 4.096 26.112-3.072l171.52-168.448-52.736-59.904L276.992 758.784 276.992 758.784z" p-id="1199" fill="#ffffff"></path></svg>