<?xml version="1.0" standalone="no"?><!DOCTYPE svg PUBLIC "-//W3C//DTD SVG 1.1//EN" "http://www.w3.org/Graphics/SVG/1.1/DTD/svg11.dtd"><svg t="1543556589027" class="icon" style="" viewBox="0 0 1137 1024" version="1.1" xmlns="http://www.w3.org/2000/svg" p-id="6846" xmlns:xlink="http://www.w3.org/1999/xlink" width="53.296875" height="48"><defs><style type="text/css"></style></defs><path d="M668.8 679.1H512.5c-15.9 0-27.9-12.9-27.9-27.9 0-15.9 12.9-27.9 27.9-27.9h156.3L633 587.6c-10-11-9-27.9 1-37.8s26.9-11 37.8-1l81.6 81.6c7 5 11 12.9 11 21.9s-3 16.9-10 21.9l-82.6 80.6c-7 7-15.9 9-24.9 8-9-2-16.9-8-19.9-16.9-4-11-2-22.9 6-30.9l35.8-35.9z m-380.3 84.7c-15.9 0-27.9-12.9-27.9-27.9V427.3c0-10 5-18.9 12.9-23.9l224-140.4c9-6 20.9-6 29.9 0l224 140.4c8 5 12.9 13.9 12.9 23.9v83.6c0 15.9-12.9 27.9-27.9 27.9-14.9 0-27.9-12.9-27.9-27.9v-68.7l-196-121.5-196.1 121.5V707H400c15.9 0 27.9 12.9 27.9 27.9 0 14.9-12.9 27.9-27.9 27.9H288.5v1z" fill="#2effd4" p-id="6847"></path><path d="M512.5 63.9c-246.9 0-448 201.1-448 448s200.1 448 448 448 448-200.1 448-448-200.1-448-448-448z m0 840.3c-216 0-392.3-175.2-392.3-392.3s176.2-391.3 392.3-391.3 392.3 175.2 392.3 391.3-175.3 392.3-392.3 392.3z" fill="#2effd4" p-id="6848"></path></svg>